# xmcd CD database file
#
# Track frame offsets:
#	150
#	22333
#	42208
#	58204
#	81410
#	100531
#	111697
#	135178
#	157859
#	170692
#	189971
#	203493
#	224296
#
# Disc length: 3405 seconds
#
# Revision: 1
# Processed by: cddbd v1.5.2PL0 Copyright (c) Steve Scherf et al.
# Submitted via: CDex 1.51
#
DISCID=b00d4b0d
DTITLE=stuck in the sound - nevermind the living dead
DYEAR=1900
DGENRE=
TTITLE0=I Shot My Friend
TTITLE1=Toy Boy
TTITLE2=Cramp Push And Take It Casy !
TTITLE3=Delicious Dog
TTITLE4=Waste 
TTITLE5=Don't Break The Bar Please Dumbo !
TTITLE6=Don't Go Henry
TTITLE7=Never Mind The Living Dead
TTITLE8=Never On The Radio
TTITLE9=I Travel The World
TTITLE10=It's (friday)
TTITLE11=Third Eyed Girl
TTITLE12=You Ain't For Me
EXTD=
EXTT0=
EXTT1=
EXTT2=
EXTT3=
EXTT4=
EXTT5=
EXTT6=
EXTT7=
EXTT8=
EXTT9=
EXTT10=
EXTT11=
EXTT12=
PLAYORDER=
